<svg width="38" height="40" viewBox="0 0 38 40" fill="none" xmlns="http://www.w3.org/2000/svg">
<path d="M18.9991 12.8613C17.0573 12.8613 15.1951 13.646 13.8221 15.0428C12.4491 16.4395 11.6777 18.3339 11.6777 20.3092C11.6777 22.2846 12.4491 24.179 13.8221 25.5757C15.1951 26.9725 17.0573 27.7572 18.9991 27.7572C20.9408 27.7572 22.803 26.9725 24.176 25.5757C25.549 24.179 26.3204 22.2846 26.3204 20.3092C26.3204 18.3339 25.549 16.4395 24.176 15.0428C22.803 13.646 20.9408 12.8613 18.9991 12.8613ZM18.9991 25.1462C17.7376 25.1462 16.5278 24.6364 15.6358 23.729C14.7438 22.8216 14.2427 21.5909 14.2427 20.3076C14.2427 19.0244 14.7438 17.7937 15.6358 16.8862C16.5278 15.9788 17.7376 15.4691 18.9991 15.4691C20.2605 15.4691 21.4703 15.9788 22.3623 16.8862C23.2543 17.7937 23.7554 19.0244 23.7554 20.3076C23.7554 21.5909 23.2543 22.8216 22.3623 23.729C21.4703 24.6364 20.2605 25.1462 18.9991 25.1462Z" fill="#fff"/>
<path d="M26.6092 14.3239C27.5518 14.3239 28.316 13.5465 28.316 12.5875C28.316 11.6286 27.5518 10.8512 26.6092 10.8512C25.6665 10.8512 24.9023 11.6286 24.9023 12.5875C24.9023 13.5465 25.6665 14.3239 26.6092 14.3239Z" fill="#333333"/>
<path d="M32.5113 10.8222C32.1448 9.85928 31.5846 8.98483 30.8668 8.25482C30.1489 7.52481 29.2891 6.95532 28.3424 6.58281C27.2346 6.15977 26.0643 5.93102 24.8812 5.90631C23.3565 5.83866 22.8736 5.81934 19.0071 5.81934C15.1406 5.81934 14.645 5.81934 13.1329 5.90631C11.9508 5.92976 10.7813 6.15855 9.67491 6.58281C8.72797 6.95489 7.86795 7.52422 7.15002 8.25429C6.43209 8.98435 5.8721 9.85903 5.50599 10.8222C5.09006 11.9491 4.86571 13.1397 4.84257 14.3432C4.77449 15.8927 4.75391 16.384 4.75391 20.3189C4.75391 24.2523 4.75391 24.7532 4.84257 26.2947C4.86632 27.4995 5.08957 28.6882 5.50599 29.8173C5.87313 30.7801 6.43366 31.6544 7.15176 32.3844C7.86987 33.1143 8.72976 33.6839 9.67649 34.0566C10.7808 34.4967 11.9507 34.7418 13.1361 34.7815C14.6608 34.8491 15.1437 34.8701 19.0102 34.8701C22.8767 34.8701 23.3723 34.8701 24.8844 34.7815C26.0673 34.757 27.2376 34.5288 28.3456 34.1066C29.292 33.7332 30.1516 33.1632 30.8694 32.433C31.5872 31.7028 32.1475 30.8284 32.5145 29.8656C32.9309 28.7381 33.1542 27.5494 33.1779 26.3446C33.246 24.7951 33.2666 24.3038 33.2666 20.3689C33.2666 16.4339 33.2666 15.9346 33.1779 14.3931C33.1595 13.1727 32.934 11.9646 32.5113 10.8222ZM30.5828 26.1755C30.5726 27.1037 30.4061 28.0233 30.0904 28.8943C29.8526 29.5207 29.4886 30.0895 29.0218 30.5641C28.5549 31.0388 27.9956 31.4087 27.3797 31.6503C26.533 31.9699 25.6386 32.1393 24.7356 32.1512C23.2314 32.2221 22.8071 32.2398 18.9501 32.2398C15.0899 32.2398 14.6957 32.2398 13.163 32.1512C12.2604 32.1399 11.3664 31.9705 10.5204 31.6503C9.90241 31.4102 9.34083 31.0409 8.87198 30.5662C8.40314 30.0915 8.03748 29.5219 7.79866 28.8943C7.48745 28.0327 7.32098 27.1239 7.30624 26.2061C7.23816 24.6759 7.22232 24.2442 7.22232 20.3205C7.22232 16.3952 7.22232 15.9942 7.30624 14.4334C7.31647 13.5057 7.48303 12.5866 7.79866 11.7161C8.28157 10.4453 9.27116 9.44504 10.5204 8.95861C11.3668 8.63991 12.2605 8.4705 13.163 8.45767C14.6687 8.38841 15.0915 8.36909 18.9501 8.36909C22.8087 8.36909 23.2045 8.36909 24.7356 8.45767C25.6387 8.46873 26.5332 8.63819 27.3797 8.95861C27.9955 9.20065 28.5548 9.571 29.0216 10.0459C29.4884 10.5208 29.8525 11.0897 30.0904 11.7161C30.4016 12.5778 30.5681 13.4866 30.5828 14.4044C30.6509 15.9362 30.6683 16.3662 30.6683 20.2915C30.6683 24.2152 30.6683 24.6372 30.6002 26.1771H30.5828L30.5828 26.1755Z" fill="#fff"/>
</svg>
